{"title":"The Town CAM AC3 XViD - IMAGiNE","uid":5855090,"size":1480270245,"categoryP":"video","categoryS":"movies","magnet":"?xt=urn:btih:b00962bdcfc7fe7d803fac80ebf0a4b7e507c9b8&amp;dn=The+Town+CAM+AC3+XViD+-+IMAGiNE&amp;tr=udp%3A%2F%2Ftracker.openbittorrent.com%3A80&amp;tr=udp%3A%2F%2Fopen.demonii.com%3A1337&amp;tr=udp%3A%2F%2Ftracker.coppersurfer.tk%3A6969&amp;tr=udp%3A%2F%2Fexodus.desync.com%3A6969","seeders":0,"leechers":0,"uploader":"nokia777","files":104,"time":1285573165,"description":"The Town CAM AC3 XViD - IMAGiNE\n\n\n********************************************************************************************************************\n\nRipper ...........:IMAGiNE                                  IMDB Rating.......:8.3/10                         \nVideo Codec.......:XVID                                    Release Date......:26/09/10\nAudio Codec.......:AC3                                      Theatre Date......:17/09/10\nAudio Bitrate.....:224                                      Runtime...........:1h 46mn\nSubtitles.........:English                                  Language..........:ENGLISH\nResolution........:720 x 400                                IMDb URL..........:http://www.imdb.com/title/tt0840361/\n\nDETAILS:\n\nVideo\nFormat                          : MPEG-4 Visual\nFormat profile                  : Streaming Video@L1\nFormat settings, BVOP            : Yes\nFormat settings, QPel            : No\nFormat settings, GMC            : No warppoints\nFormat settings, Matrix          : Default\nMuxing mode                      : Packed bitstream\nCodec ID                        : XVID\nCodec ID/Hint                    : XviD\nDuration                        : 1h 46mn\nBit rate                        : 1 623 Kbps\nWidth                            : 720 pixels\nHeight                          : 400 pixels\nDisplay aspect ratio            : 16/9\nFrame rate                      : 23.976 fps\nResolution                      : 24 bits\nColorimetry                      : 4:2:0\nScan type                        : Progressive\nBits/(Pixel*Frame)              : 0.235\nStream size                      : 1.21 GiB (89)\nWriting library                  : XviD 50\n\nAudio\nFormat                          : AC-3\nFormat/Info                      : Audio Coding 3\nCodec ID                        : 2000\nDuration                        : 1h 46mn\nBit rate mode                    : Constant\nBit rate                        : 192 Kbps\nChannel(s)                      : 2 channels\nChannel positions                : L R\nSampling rate                    : 48.0 KHz\nStream size                      : 146 MiB (11)\nAlignment                        : Aligned on interleaves\nInterleave, duration            : 42 ms (1.00 video frame)\nInterleave, preload duration    : 512 ms\n\nSOURCES:\n\nVIDEO: Thanks to a very good friend...\nAUDIO: Thanks to a very good friend...\n\nNOTES:\n\nIMAGiNE bringing you another release..... The Town\n\nRight well here we are with a nice cam for everyone to enjoy...\nVideo on this was pretty good other than the odd auto focus issues. First was the colors, we\nmessed about with the rgb colors and also brightened it up a bit, along with lowering the\nchroma and that dulled the real bright spots. The audio was ac3 from the source files so\nwe opted to leave that because it sounds fairly good for cam audio.\nYou can hear the odd laughing and such, but not bad at all. Sample was made so you\ncould hear the laughter at one certain spot...","torrent":{"xt":"urn:btih:b00962bdcfc7fe7d803fac80ebf0a4b7e507c9b8","amp;dn":"The+Town+CAM+AC3+XViD+-+IMAGiNE","amp;tr":["udp%3A%2F%2Ftracker.openbittorrent.com%3A80","udp%3A%2F%2Fopen.demonii.com%3A1337","udp%3A%2F%2Ftracker.coppersurfer.tk%3A6969","udp%3A%2F%2Fexodus.desync.com%3A6969"],"infoHash":"b00962bdcfc7fe7d803fac80ebf0a4b7e507c9b8","infoHashBuffer":{"type":"Buffer","data":[176,9,98,189,207,199,254,125,128,63,172,128,235,240,164,183,229,7,201,184]},"announce":[],"urlList":[]}}